<?xml version="1.0" encoding="utf-8"?>
<!-- Generator: Adobe Illustrator 23.0.3, SVG Export Plug-In . SVG Version: 6.00 Build 0)  -->
<svg version="1.1" id="Layer_1" xmlns="http://www.w3.org/2000/svg" xmlns:xlink="http://www.w3.org/1999/xlink" x="0px" y="0px"
	 viewBox="0 0 1000 1000" style="enable-background:new 0 0 1000 1000;" xml:space="preserve">
<style type="text/css">
	.st0{fill:#F35B04;}
	.st1{fill:#F7B801;}
	.st2{fill:#3D348B;}
</style>
<g>
	<path class="st0" d="M966.78,376.34c-4.99-79.62-7-119.47-149.34-132.31c-50.99-4.5-96.03,8.3-132.83,26.82
		c1.52-9,2.64-18.31,3.22-27.88c2.23-36.5-3.29-75.89-20.72-115.11C610.25-0.11,574.71,12.7,500.03,31.21
		c-75.65-18.5-113-30.87-168.73,98.78c-16.75,38.73-21.3,77.45-19.07,112.98c0.6,9.57,1.71,18.88,3.18,27.88
		c-36.8-18.52-81.85-31.32-132.84-26.82C40.23,256.87,38.21,296.71,33.22,376.34c-39.56,66.11-62.89,97.34,43.74,188.31
		c39.09,33.61,83.4,49.57,124.24,56.23c-29.8,30.79-56.97,71.92-67.74,124.85c-28.48,137.23,9.1,147.6,80.88,175.59
		c52.75,59.85,78.77,90.09,199.1,12.99c41.5-26.71,68.77-62.74,86.56-98.62c17.79,35.88,45.06,71.91,86.56,98.62
		c120.33,77.11,146.35,46.86,199.1-12.99c71.78-27.99,109.36-38.35,80.88-175.59c-10.77-52.93-37.94-94.06-67.74-124.85
		c40.84-6.65,85.15-22.61,124.24-56.23C1029.67,473.68,1006.33,442.45,966.78,376.34z M511.6,668.38c-4.18,2.95-8.05,6.21-11.6,9.73
		c-3.55-3.51-7.42-6.77-11.6-9.73c-2.9-2.05-134.25-92.55-137.37-91.47c-1.05-0.67-2.11-1.3-3.17-1.92
		c1.69-3.33,3.2-6.78,4.48-10.35c3.13-1.05,51.42-153.08,52.46-156.48c1.47-4.82,2.52-9.69,3.18-14.57c2.71,0.32,5.44,0.54,8.2,0.61
		c1.64,1.04,111.74,1.65,113.83,1.65c0.91,0,49.98-0.22,50.85-0.33c3.77-0.5,7.49-1.18,11.18-1.97c0.66,4.89,1.7,9.77,3.18,14.61
		c1.04,3.4,49.33,155.42,52.46,156.48c1.28,3.57,2.79,7.02,4.48,10.35c-1.07,0.62-2.13,1.26-3.17,1.92
		C645.86,575.83,514.5,666.33,511.6,668.38z"/>
	<path class="st1" d="M752.97,433.58c-6.62-52.61-22.09-79.44-105.36-81.89c-10.68-0.31-20.86,0.7-30.5,2.73
		c-1.99-18.5-7.82-36.99-17.06-54.87c-34.29-66.34-56.34-63.89-100.01-54.85c-46.51-9.05-72.75-9.8-104.85,61.1
		c-7.35,16.23-11.29,32.73-12.58,48.87c-9.55-2.03-19.63-3.13-30.21-3c-83.3,1.05-98.74,29.28-105.36,81.89
		c-21.51,39.42-31.42,61.49,23.65,112.46c13.56,12.55,28.39,21.47,43.4,27.74c-8.42,14.49-14.99,31.12-18.12,49.98
		c-12.26,74.03,9.09,85.39,50.26,103.35c37.48,37.51,66.57,49.79,133.45,0.11c7.7-5.72,14.44-12.01,20.33-18.67
		c5.9,6.67,12.64,12.96,20.33,18.67c66.87,49.67,95.96,37.4,133.45-0.11c41.16-17.96,62.52-29.32,50.26-103.35
		c-3.12-18.85-9.69-35.47-18.1-49.96c15-6.27,29.83-15.18,43.39-27.73C784.39,495.07,774.48,473,752.97,433.58z M514.69,474.79
		c1.02,0,5.43-0.08,10.65-0.21c4.72,12.94,13.07,34.66,21.04,52.7c-16.5,8.98-34.98,20.14-46.37,27.28
		c-11.4-7.14-29.88-18.31-46.38-27.29c8.23-18.64,16.89-41.23,21.51-53.99C492.43,474.26,511.35,474.79,514.69,474.79z"/>
	<path class="st2" d="M580,500c0,22.09-8.95,42.09-23.43,56.57S522.09,580,500,580c-44.18,0-80-35.82-80-80s35.82-80,80-80
		c22.09,0,42.09,8.95,56.57,23.43S580,477.91,580,500z"/>
</g>
</svg>
