<?xml version="1.0" standalone="no"?>
<!DOCTYPE svg PUBLIC "-//W3C//DTD SVG 20010904//EN"
 "http://www.w3.org/TR/2001/REC-SVG-20010904/DTD/svg10.dtd">
<svg version="1.0" xmlns="http://www.w3.org/2000/svg"
 width="1000.000000pt" height="1000.000000pt" viewBox="0 0 1000.000000 1000.000000"
 preserveAspectRatio="xMidYMid meet">
<metadata>
Created by potrace 1.11, written by Peter Selinger 2001-2013
</metadata>
<g transform="translate(0.000000,1000.000000) scale(0.100000,-0.100000)"
fill="#000000" stroke="none">
<path d="M4317 9804 c-1 -1 -24 -5 -52 -8 -242 -28 -428 -164 -622 -456 -192
-288 -415 -791 -467 -1055 -4 -16 -9 -41 -12 -55 -43 -205 -58 -473 -40 -695
8 -92 9 -105 20 -189 5 -38 4 -47 -6 -43 -7 3 -58 26 -113 50 -90 40 -314 122
-362 132 -10 2 -49 11 -88 20 -38 9 -81 19 -95 21 -14 3 -47 9 -75 14 -168 32
-565 35 -747 5 -12 -2 -45 -6 -73 -10 -49 -6 -149 -21 -210 -31 -25 -4 -191
-41 -270 -59 -104 -24 -363 -134 -398 -169 -6 -7 -20 -17 -29 -22 -38 -21
-134 -123 -173 -184 -58 -90 -92 -181 -120 -318 -12 -65 -23 -124 -23 -132 0
-8 -2 -33 -5 -55 -7 -47 -18 -184 -22 -267 -3 -51 -11 -72 -61 -156 -83 -140
-128 -218 -150 -262 -97 -194 -130 -319 -120 -470 11 -184 82 -339 254 -555
71 -88 286 -308 394 -402 46 -39 97 -83 113 -98 286 -253 722 -463 1120 -540
50 -10 96 -21 103 -25 10 -5 -1 -23 -40 -65 -314 -341 -550 -803 -622 -1220
-3 -16 -10 -55 -16 -85 -23 -118 -39 -218 -46 -280 -3 -36 -8 -67 -9 -70 -4
-7 -18 -223 -18 -280 0 -286 68 -494 206 -635 112 -113 255 -195 522 -300 175
-68 175 -68 240 -142 111 -125 268 -283 324 -326 31 -23 65 -50 75 -60 34 -30
178 -94 251 -112 124 -30 272 -24 435 20 258 68 733 323 1030 554 103 79 273
247 365 359 82 100 216 301 270 405 22 42 42 77 45 77 3 0 27 -42 54 -92 196
-367 496 -685 861 -914 60 -38 117 -73 127 -79 688 -401 1044 -449 1393 -187
64 48 245 226 362 358 40 44 78 81 85 81 20 1 283 109 384 158 173 84 329 211
378 308 9 18 21 39 25 47 37 61 76 210 87 325 15 167 1 388 -41 650 -20 124
-23 141 -40 215 -8 36 -16 79 -19 95 -22 126 -126 411 -205 558 -70 133 -85
161 -91 167 -3 3 -27 39 -54 80 -61 94 -154 213 -240 309 -36 40 -66 76 -66
80 0 4 8 7 18 8 59 3 320 68 432 108 407 145 703 344 1090 734 186 187 255
271 334 403 91 155 118 239 122 384 3 93 0 125 -21 205 -29 109 -109 275 -224
470 -80 133 -81 137 -86 215 -3 43 -7 99 -10 124 -2 25 -7 73 -10 107 -35 422
-171 651 -475 796 -101 49 -257 102 -350 121 -14 3 -59 12 -100 21 -41 9 -91
18 -110 21 -19 2 -46 6 -60 9 -33 6 -74 12 -130 20 -25 3 -61 8 -80 10 -111
15 -186 19 -370 19 -180 0 -289 -6 -340 -19 -8 -2 -37 -7 -65 -11 -27 -3 -53
-8 -56 -10 -3 -2 -21 -6 -40 -9 -127 -22 -362 -101 -523 -174 -48 -23 -90 -41
-92 -41 -4 0 3 67 12 114 22 115 21 533 -1 616 -2 8 -7 40 -10 70 -17 144
-103 445 -171 597 -38 86 -231 472 -256 513 -255 422 -473 589 -773 593 -142
2 -256 -15 -511 -78 -77 -19 -149 -33 -160 -31 -10 2 -57 13 -104 25 -201 48
-287 65 -392 76 -56 7 -168 12 -171 9z"/>
</g>
</svg>
