<?xml version="1.0" encoding="utf-8"?>
<!-- Generator: Adobe Illustrator 23.0.2, SVG Export Plug-In . SVG Version: 6.00 Build 0)  -->
<svg version="1.1" id="Layer_1" xmlns="http://www.w3.org/2000/svg" xmlns:xlink="http://www.w3.org/1999/xlink" x="0px" y="0px"
	 viewBox="0 0 20 20" style="enable-background:new 0 0 20 20;" xml:space="preserve">
<style type="text/css">
	.st0{fill:#F2F2F2;}
</style>
<circle class="st0" cx="10" cy="10" r="7.5"/>
<g>
	<path class="st0" d="M10,5L10,5C9.4,5,9,4.6,9,4V1c0-0.6,0.4-1,1-1h0c0.6,0,1,0.4,1,1v3C11,4.6,10.6,5,10,5z"/>
	<path class="st0" d="M10,20L10,20c-0.6,0-1-0.4-1-1v-3c0-0.6,0.4-1,1-1h0c0.6,0,1,0.4,1,1v3C11,19.6,10.6,20,10,20z"/>
</g>
<g>
	<path class="st0" d="M15,10L15,10c0-0.6,0.4-1,1-1h3c0.6,0,1,0.4,1,1v0c0,0.6-0.4,1-1,1h-3C15.4,11,15,10.6,15,10z"/>
	<path class="st0" d="M0,10L0,10c0-0.6,0.4-1,1-1h3c0.6,0,1,0.4,1,1v0c0,0.6-0.4,1-1,1H1C0.4,11,0,10.6,0,10z"/>
</g>
<g>
	<path class="st0" d="M13.5,6.5L13.5,6.5c-0.4-0.4-0.4-1,0-1.4l2.1-2.1c0.4-0.4,1-0.4,1.4,0v0c0.4,0.4,0.4,1,0,1.4l-2.1,2.1
		C14.6,6.9,13.9,6.9,13.5,6.5z"/>
	<path class="st0" d="M2.9,17.1L2.9,17.1c-0.4-0.4-0.4-1,0-1.4l2.1-2.1c0.4-0.4,1-0.4,1.4,0l0,0c0.4,0.4,0.4,1,0,1.4l-2.1,2.1
		C4,17.5,3.3,17.5,2.9,17.1z"/>
</g>
<g>
	<path class="st0" d="M6.5,6.5L6.5,6.5c-0.4,0.4-1,0.4-1.4,0L2.9,4.3c-0.4-0.4-0.4-1,0-1.4l0,0c0.4-0.4,1-0.4,1.4,0l2.1,2.1
		C6.9,5.4,6.9,6.1,6.5,6.5z"/>
	<path class="st0" d="M17.1,17.1L17.1,17.1c-0.4,0.4-1,0.4-1.4,0l-2.1-2.1c-0.4-0.4-0.4-1,0-1.4l0,0c0.4-0.4,1-0.4,1.4,0l2.1,2.1
		C17.5,16,17.5,16.7,17.1,17.1z"/>
</g>
</svg>
